# xmcd CD database file
#
# Track frame offsets:
#	150
#	14440
#	31935
#	47410
#	61742
#	74577
#	88178
#	103395
#	116383
#	131015
#	149513
#	162334
#	176220
#	190921
#	201728
#	215761
#	230038
#
# Disc length: 3242 seconds
#
# Revision: 0
# Processed by: cddbd v1.5.1PL0 Copyright (c) Steve Scherf et al.
# Submitted via: CDex 1.50
#
DISCID=0c0ca811
DTITLE=Patti McKinnon - Freedom Highway
DYEAR=2005
DGENRE=Country
TTITLE0=He Knows When You're On My Mind
TTITLE1=Just Waiting For You
TTITLE2=Freedom Highway (with Bill Goodall)
TTITLE3=Baby Blue
TTITLE4=Amanda
TTITLE5=Queen Of Hearts
TTITLE6=Cold Cold Heart
TTITLE7=She's In Love With A Rodeo Man
TTITLE8=Every Time That You Walk In The Room
TTITLE9=Til Each Tear You Cry Becomes A Rose
TTITLE10=Soldier's Last Letter
TTITLE11=Dear One
TTITLE12=Life Turned Him That Way
TTITLE13=Dust On Mother's Bible
TTITLE14=Black Ribbon Heartache
TTITLE15=Goin' Home To Mumma
TTITLE16=Texas When I Die
EXTD=YEAR: 2005
EXTT0=
EXTT1=
EXTT2=
EXTT3=
EXTT4=
EXTT5=
EXTT6=
EXTT7=
EXTT8=
EXTT9=
EXTT10=
EXTT11=
EXTT12=
EXTT13=
EXTT14=
EXTT15=
EXTT16=
PLAYORDER=
